<svg width="61" height="63" viewBox="0 0 61 63" fill="none" xmlns="http://www.w3.org/2000/svg">
<path d="M39.375 59.6235V35.9568C39.375 35.1722 39.0633 34.4197 38.5085 33.8649C37.9537 33.3101 37.2013 32.9985 36.4167 32.9985H24.5833C23.7987 32.9985 23.0463 33.3101 22.4915 33.8649C21.9367 34.4197 21.625 35.1722 21.625 35.9568V59.6235" fill="#133850"/>
<path d="M3.875 27.0818C3.87479 26.2211 4.06236 25.3708 4.42462 24.59C4.78688 23.8093 5.31511 23.117 5.97246 22.5615L26.6808 4.81442C27.7487 3.91186 29.1018 3.41667 30.5 3.41667C31.8982 3.41667 33.2513 3.91186 34.3192 4.81442L55.0275 22.5615C55.6849 23.117 56.2131 23.8093 56.5754 24.59C56.9376 25.3708 57.1252 26.2211 57.125 27.0818V53.7068C57.125 55.276 56.5016 56.7809 55.392 57.8905C54.2825 59.0001 52.7775 59.6235 51.2083 59.6235H9.79167C8.22247 59.6235 6.71754 59.0001 5.60795 57.8905C4.49836 56.7809 3.875 55.276 3.875 53.7068V27.0818Z" fill="#133850"/>
<path d="M39.375 59.6235V35.9568C39.375 35.1722 39.0633 34.4197 38.5085 33.8649C37.9537 33.3101 37.2013 32.9985 36.4167 32.9985H24.5833C23.7987 32.9985 23.0463 33.3101 22.4915 33.8649C21.9367 34.4197 21.625 35.1722 21.625 35.9568V59.6235M3.875 27.0818C3.87479 26.2211 4.06236 25.3708 4.42462 24.59C4.78688 23.8093 5.31511 23.117 5.97246 22.5615L26.6808 4.81442C27.7487 3.91186 29.1018 3.41667 30.5 3.41667C31.8982 3.41667 33.2513 3.91186 34.3192 4.81442L55.0275 22.5615C55.6849 23.117 56.2131 23.8093 56.5754 24.59C56.9376 25.3708 57.1252 26.2211 57.125 27.0818V53.7068C57.125 55.276 56.5016 56.7809 55.392 57.8905C54.2825 59.0001 52.7775 59.6235 51.2083 59.6235H9.79167C8.22247 59.6235 6.71754 59.0001 5.60795 57.8905C4.49836 56.7809 3.875 55.276 3.875 53.7068V27.0818Z" stroke="white" stroke-width="5.91667" stroke-linecap="round" stroke-linejoin="round"/>
</svg>
